<svg width="20" height="20" viewBox="0 0 20 20" fill="none" xmlns="http://www.w3.org/2000/svg">
<path d="M19.5834 7.0875C19.5846 6.98792 19.5496 6.89083 19.4846 6.81375C19.4055 6.72042 19.2892 6.66667 19.1667 6.66667H17.9167V4.58333C17.9167 4.35292 17.7305 4.16667 17.5 4.16667H8.41754L7.43004 2.68542C7.35254 2.56958 7.22254 2.5 7.08337 2.5H2.50004C2.26962 2.5 2.08337 2.68625 2.08337 2.91667V17.0833C2.08337 17.7725 2.64421 18.3333 3.33337 18.3333H3.48379H16.4413H16.6667C17.133 18.3333 17.5359 18.0737 17.7505 17.6942C17.918 17.4804 18.0375 17.2254 18.085 16.9404L19.5775 7.985C19.5809 7.96542 19.5825 7.94542 19.583 7.92583C19.5846 7.83083 19.583 7.10917 19.5834 7.0875Z" fill="black"/>
<path d="M17.5 4.58333H8.19458L7.08333 2.91667H2.5V16.25C2.5 16.7104 2.87292 17.0833 3.33333 17.0833H16.6667C17.1271 17.0833 17.5 16.7104 17.5 16.25V4.58333Z" fill="#FFF5EA"/>
<path d="M16.6667 17.5H3.33337C2.64421 17.5 2.08337 16.9392 2.08337 16.25V2.91667C2.08337 2.68625 2.27004 2.5 2.50004 2.5H7.08337C7.22254 2.5 7.35254 2.56958 7.43004 2.68542L8.41754 4.16667H17.5C17.73 4.16667 17.9167 4.35292 17.9167 4.58333V16.25C17.9167 16.9392 17.3559 17.5 16.6667 17.5ZM2.91671 3.33333V16.25C2.91671 16.48 3.10379 16.6667 3.33337 16.6667H16.6667C16.8963 16.6667 17.0834 16.48 17.0834 16.25V5H8.19462C8.05546 5 7.92546 4.93042 7.84796 4.81458L6.86046 3.33333H2.91671Z" fill="#FFF5EA"/>
<path d="M16.4413 17.0833H3.48376C2.96876 17.0833 2.57709 16.6208 2.66167 16.1129L4.16667 7.08333H19.1667L17.6742 16.0387C17.5738 16.6417 17.0521 17.0833 16.4413 17.0833Z" fill="#0A0A11"/>
<path d="M16.4409 17.5H3.48378C3.11586 17.5 2.76794 17.3388 2.53003 17.0579C2.29211 16.7771 2.19003 16.4075 2.25086 16.0442L3.75586 7.01458C3.78919 6.81417 3.96294 6.66667 4.16669 6.66667H19.1667C19.2892 6.66667 19.4054 6.72042 19.4846 6.81417C19.5638 6.90792 19.5975 7.03125 19.5775 7.15208L18.085 16.1075C17.9509 16.9146 17.2592 17.5 16.4409 17.5ZM4.51961 7.5L3.07294 16.1813C3.05253 16.3042 3.08544 16.4246 3.16628 16.5196C3.24628 16.6142 3.35919 16.6667 3.48378 16.6667H16.4413C16.8504 16.6667 17.1963 16.3738 17.2634 15.9704L18.6746 7.5H4.51961Z" fill="#FFF5EA"/>
</svg>
