<svg width="24" height="24" viewBox="0 0 24 24" fill="none" xmlns="http://www.w3.org/2000/svg">
<g id="idea">
<g id="bulb">
<path d="M14.3691 19.5176C14.1657 20.036 13.5955 20.4004 12.9365 20.4004H11.0635C10.4044 20.4004 9.83446 20.036 9.63086 19.5176H14.3691Z" fill="#FFF5EA"/>
<path d="M14.5244 18.6582H9.47559L9.34961 17.7998H14.6504L14.5244 18.6582Z" fill="#FFF5EA"/>
<path fill-rule="evenodd" clip-rule="evenodd" d="M6 9.73828C6.00032 2.09371 17.9997 2.08077 18 9.73828C18 13.611 14.6396 14.0954 14.6396 17H9.36035C9.36035 14.0954 6 13.611 6 9.73828ZM12.001 6C10.9039 6.00061 9.88345 6.35416 9.1709 6.95996C8.5015 7.52918 8.00008 8.40233 8 9.73828C8 10.9409 8.44787 11.566 9.19043 12.4219C9.66778 12.9721 10.4873 13.801 10.9707 15H13.0293C13.5127 13.801 14.3322 12.9721 14.8096 12.4219C15.5521 11.566 16 10.9409 16 9.73828C15.9999 8.39831 15.4982 7.5251 14.8301 6.95703C14.1184 6.35214 13.0982 5.99941 12.001 6Z" fill="#FFF5EA"/>
</g>
<line id="r1" x1="17.183" y1="5.81699" x2="18.9151" y2="4.81699" stroke="#FFF5EA" stroke-linecap="round"/>
<line id="r2" x1="18.5" y1="9.5" x2="20.5" y2="9.5" stroke="#FFF5EA" stroke-linecap="round"/>
<line id="r3" x1="17.683" y1="12.817" x2="19.4151" y2="13.817" stroke="#FFF5EA" stroke-linecap="round"/>
<line id="l1" x1="6.82" y1="5.82" x2="5.08" y2="4.82" transform="matrix(-0.866025 -0.5 -0.5 0.866025 7 6.5)" stroke="#FFF5EA" stroke-linecap="round"/>
<line id="l2" x1="0.5" y1="-0.5" x2="2.5" y2="-0.5" transform="matrix(-1 0 0 1 6 10)" stroke="#FFF5EA" stroke-linecap="round"/>
<line id="l3" x1="0.5" y1="-0.5" x2="2.5" y2="-0.5" transform="matrix(-0.866025 0.5 0.5 0.866025 7 13)" stroke="#FFF5EA" stroke-linecap="round"/>
</g>
</svg>
