<svg width="20" height="20" viewBox="0 0 20 20" fill="none" xmlns="http://www.w3.org/2000/svg">
<g clip-path="url(#clip0_16_23)">
<path d="M16.6667 7.5C16.6667 3.82417 13.6759 0.833332 10 0.833332C6.32421 0.833332 3.33337 3.82417 3.33337 7.5C3.33337 7.67208 3.33337 8.22 3.33337 8.33333C3.33337 10.8429 4.49296 12.1108 5.42546 13.13C6.11879 13.8883 6.66671 14.4875 6.66671 15.4167C6.66671 15.4262 6.67129 15.4342 6.67212 15.4433C6.67254 15.4517 6.66879 15.4596 6.67004 15.4683L6.90421 17.3438C7.03421 18.3829 7.92212 19.1667 8.96921 19.1667H11.0305C12.078 19.1667 12.9659 18.3829 13.0955 17.3438L13.3296 15.4683C13.3309 15.46 13.3267 15.4521 13.3275 15.4433C13.3288 15.4342 13.3334 15.4262 13.3334 15.4167C13.3334 14.4471 13.9425 13.735 14.648 12.9104C15.5946 11.8046 16.6667 10.5517 16.6667 8.33333C16.6667 8.21083 16.6667 7.6625 16.6667 7.5Z" fill="black"/>
<path d="M7.08337 14.5833L7.31796 16.4588C7.42212 17.2917 8.13004 17.9167 8.96921 17.9167H11.0309C11.87 17.9167 12.5784 17.2917 12.6821 16.4588L12.9167 14.5833H7.08337Z" fill="#FFF5EA"/>
<path d="M11.0308 18.3333H8.96955C7.92205 18.3333 7.03414 17.5496 6.90455 16.5104L6.67039 14.635C6.65539 14.5167 6.69247 14.3971 6.77122 14.3075C6.84997 14.2179 6.96372 14.1667 7.0833 14.1667H12.9166C13.0362 14.1667 13.15 14.2179 13.2291 14.3075C13.3079 14.3971 13.345 14.5167 13.33 14.635L13.0958 16.5104C12.9658 17.5496 12.0779 18.3333 11.0308 18.3333ZM7.55539 15L7.73122 16.4071C7.80914 17.03 8.34164 17.5 8.96914 17.5H11.0304C11.6583 17.5 12.1904 17.03 12.2687 16.4071L12.4446 15H7.55539Z" fill="black"/>
<path d="M10 2.25C12.8994 2.25 15.25 4.60062 15.25 7.5C15.25 9.01548 14.6054 9.9316 13.8184 10.8662C13.2446 11.5476 12.3929 12.4115 12.0596 13.583H7.93652C7.5936 12.4245 6.71956 11.6269 6.16406 11.002C5.41377 10.1579 4.75 9.24021 4.75 7.5C4.75 4.60062 7.10062 2.25 10 2.25Z" stroke="#FFF5EA" stroke-width="2"/>
<path d="M12.9167 15H7.08337C6.85296 15 6.66671 14.8137 6.66671 14.5833C6.66671 13.6542 6.11879 13.055 5.42546 12.2967C4.49296 11.2775 3.33337 10.0096 3.33337 7.5C3.33337 3.82417 6.32421 0.833332 10 0.833332C13.6759 0.833332 16.6667 3.82417 16.6667 7.5C16.6667 9.71833 15.5946 10.9712 14.648 12.0771C13.9425 12.9017 13.3334 13.6137 13.3334 14.5833C13.3334 14.8137 13.1471 15 12.9167 15ZM7.47296 14.1667H12.5271C12.6667 13.1112 13.3238 12.3429 14.015 11.5354C14.9088 10.4908 15.8334 9.41042 15.8334 7.5C15.8334 4.28333 13.2167 1.66667 10 1.66667C6.78337 1.66667 4.16671 4.28333 4.16671 7.5C4.16671 9.68625 5.11879 10.7271 6.04004 11.7342C6.70421 12.46 7.33504 13.1504 7.47296 14.1667Z" fill="black"/>
<path d="M10 3.33333C7.70254 3.33333 5.83337 5.2025 5.83337 7.5C5.83337 7.73042 6.01962 7.91667 6.25004 7.91667C6.48046 7.91667 6.66671 7.73042 6.66671 7.5C6.66671 5.66208 8.16212 4.16667 10 4.16667C10.2305 4.16667 10.4167 3.98042 10.4167 3.75C10.4167 3.51958 10.2305 3.33333 10 3.33333Z" fill="black"/>
<path d="M19.5833 7.08333H17.9167C17.6863 7.08333 17.5 7.26958 17.5 7.5C17.5 7.73042 17.6863 7.91667 17.9167 7.91667H19.5833C19.8138 7.91667 20 7.73042 20 7.5C20 7.26958 19.8138 7.08333 19.5833 7.08333Z" fill="#FFF5EA"/>
<path d="M16.6671 2.91667C16.7462 2.91667 16.8267 2.89375 16.8979 2.84667L18.1479 2.01333C18.3396 1.88542 18.3912 1.62708 18.2633 1.43542C18.1354 1.24417 17.8771 1.1925 17.6854 1.32L16.4354 2.15333C16.2437 2.28125 16.1921 2.53958 16.32 2.73125C16.4 2.85167 16.5325 2.91667 16.6671 2.91667Z" fill="#FFF5EA"/>
<path d="M16.8979 12.1533C16.7058 12.0258 16.4475 12.0771 16.32 12.2688C16.1921 12.4604 16.2437 12.7188 16.4354 12.8467L17.6854 13.68C17.7567 13.7271 17.8371 13.75 17.9162 13.75C18.0508 13.75 18.1833 13.685 18.2633 13.5646C18.3912 13.3729 18.3396 13.1146 18.1479 12.9867L16.8979 12.1533Z" fill="#FFF5EA"/>
<path d="M2.5 7.5C2.5 7.26958 2.31375 7.08333 2.08333 7.08333H0.416667C0.18625 7.08333 0 7.26958 0 7.5C0 7.73042 0.18625 7.91667 0.416667 7.91667H2.08333C2.31375 7.91667 2.5 7.73042 2.5 7.5Z" fill="#FFF5EA"/>
<path d="M3.10204 12.1533L1.85204 12.9867C1.66037 13.1146 1.6087 13.3729 1.73662 13.5646C1.81662 13.685 1.94912 13.75 2.0837 13.75C2.16287 13.75 2.24329 13.7271 2.31454 13.68L3.56454 12.8467C3.7562 12.7188 3.80787 12.4604 3.67995 12.2688C3.55245 12.0771 3.29412 12.0258 3.10204 12.1533Z" fill="#FFF5EA"/>
<path d="M2.31454 1.32C2.12204 1.1925 1.86412 1.24417 1.73662 1.43542C1.6087 1.62708 1.66037 1.88542 1.85204 2.01333L3.10204 2.84667C3.17329 2.89375 3.2537 2.91667 3.33287 2.91667C3.46745 2.91667 3.59995 2.85167 3.67995 2.73125C3.80787 2.53958 3.7562 2.28125 3.56454 2.15333L2.31454 1.32Z" fill="#FFF5EA"/>
<path d="M12.5 15.8333H7.5V16.6667H12.5V15.8333Z" fill="black"/>
</g>
<defs>
<clipPath id="clip0_16_23">
<rect width="20" height="20" fill="white"/>
</clipPath>
</defs>
</svg>
