<svg width="20" height="20" viewBox="0 0 20 20" fill="none" xmlns="http://www.w3.org/2000/svg">
<path d="M7.08301 2.5C7.22215 2.5 7.35218 2.56975 7.42969 2.68555L8.41797 4.16699H17.5C17.7299 4.16699 17.9168 4.35274 17.917 4.58301V16.25C17.917 16.9391 17.356 17.4998 16.667 17.5H3.33301C2.64399 17.4998 2.08301 16.9391 2.08301 16.25V2.91699C2.08301 2.68658 2.27 2.5 2.5 2.5H7.08301Z" fill="#FFF5EA"/>
<path d="M19.0691 7.16699L17.5926 16.0254C17.4986 16.5907 17.0153 16.9998 16.4412 17H3.48418C3.2634 17 3.05396 16.9032 2.91093 16.7344C2.76805 16.5654 2.70767 16.3442 2.74394 16.127V16.126L4.23808 7.16699H19.0691Z" fill="#0A0A11" stroke="#FFF5EA"/>
</svg>
